<svg aria-hidden="true" style="position:absolute;width:0;height:0;overflow:hidden" xmlns="http://www.w3.org/2000/svg">
  <defs>
    <symbol id="icon-elements" viewBox="0 0 12 32">
      <path fill="#ecd979" style="fill:var(--color1, #ecd979)" d="M12.112 31.964h-1.124v-1.142h1.124v1.142zM10.987 31.964H9.863v-1.142h1.124v1.142zM6.489 31.964H5.365v-1.142h1.124v1.142zM5.365 31.964H4.241v-1.142h1.124v1.142zM4.24 31.964H3.116v-1.142H4.24v1.142z"/>
      <path fill="#ecd979" style="fill:var(--color1, #ecd979)" d="M12.112 30.823h-1.124v-1.142h1.124v1.142zM7.614 30.823H6.49v-1.142h1.124v1.142zM6.489 30.823H5.365v-1.142h1.124v1.142zM5.365 30.823H4.241v-1.142h1.124v1.142zM8.738 29.681H7.614v-1.142h1.124v1.142z"/>
      <path fill="#ecd979" style="fill:var(--color1, #ecd979)" d="M7.614 29.681H6.49v-1.142h1.124v1.142zM6.489 29.681H5.365v-1.142h1.124v1.142zM9.863 28.54H8.739v-1.142h1.124v1.142z"/>
      <path fill="#ecd979" style="fill:var(--color1, #ecd979)" d="M8.738 28.54H7.614v-1.142h1.124v1.142z"/>
      <path fill="#ecd979" style="fill:var(--color1, #ecd979)" d="M7.614 28.54H6.49v-1.142h1.124v1.142zM1.991 28.54H.867v-1.142h1.124v1.142zM.867 28.54H-.257v-1.142H.867v1.142zM10.987 27.398H9.863v-1.142h1.124v1.142z"/>
      <path fill="#ecd979" style="fill:var(--color1, #ecd979)" d="M9.863 27.398H8.739v-1.142h1.124v1.142zM8.738 27.398H7.614v-1.142h1.124v1.142zM.867 27.398H-.257v-1.142H.867v1.142zM10.987 26.256H9.863v-1.142h1.124v1.142z"/>
      <path fill="#ecd979" style="fill:var(--color1, #ecd979)" d="M9.863 26.256H8.739v-1.142h1.124v1.142z"/>
      <path fill="#ecd979" style="fill:var(--color1, #ecd979)" d="M10.987 25.115H9.863v-1.142h1.124v1.142zM5.365 25.115H4.241v-1.142h1.124v1.142zM5.365 23.973H4.241v-1.142h1.124v1.142zM4.24 23.973H3.116v-1.142H4.24v1.142z"/>
      <path fill="#ecd979" style="fill:var(--color1, #ecd979)" d="M5.365 22.832H4.241V21.69h1.124v1.142zM4.24 22.832H3.116V21.69H4.24v1.142zM3.116 22.832H1.992V21.69h1.124v1.142zM4.24 21.69H3.116v-1.142H4.24v1.142zM3.116 21.69H1.992v-1.142h1.124v1.142zM8.738 20.548H7.614v-1.142h1.124v1.142z"/>
      <path fill="#ecd979" style="fill:var(--color1, #ecd979)" d="M7.614 20.548H6.49v-1.142h1.124v1.142zM6.489 20.548H5.365v-1.142h1.124v1.142zM3.116 20.548H1.992v-1.142h1.124v1.142zM12.112 19.407h-1.124v-1.142h1.124v1.142z"/>
      <path fill="#ecd979" style="fill:var(--color1, #ecd979)" d="M7.614 19.407H6.49v-1.142h1.124v1.142zM6.489 19.407H5.365v-1.142h1.124v1.142zM5.365 19.407H4.241v-1.142h1.124v1.142zM.867 19.407H-.257v-1.142H.867v1.142zM12.112 18.265h-1.124v-1.142h1.124v1.142zM10.987 18.265H9.863v-1.142h1.124v1.142zM6.489 18.265H5.365v-1.142h1.124v1.142zM5.365 18.265H4.241v-1.142h1.124v1.142zM4.24 18.265H3.116v-1.142H4.24v1.142zM1.991 18.265H.867v-1.142h1.124v1.142zM.867 18.265H-.257v-1.142H.867v1.142z"/>
      <path fill="#ecd979" style="fill:var(--color1, #ecd979)" d="M12.112 17.124h-1.124v-1.142h1.124v1.142zM10.987 17.124H9.863v-1.142h1.124v1.142z"/>
      <path fill="#ecd979" style="fill:var(--color1, #ecd979)" d="M9.863 17.124H8.739v-1.142h1.124v1.142zM12.112 15.982h-1.124V14.84h1.124v1.142zM10.987 15.982H9.863V14.84h1.124v1.142zM6.489 15.982H5.365V14.84h1.124v1.142zM5.365 15.982H4.241V14.84h1.124v1.142zM4.24 15.982H3.116V14.84H4.24v1.142zM1.991 15.982H.867V14.84h1.124v1.142zM.867 15.982H-.257V14.84H.867v1.142z"/>
      <path fill="#ecd979" style="fill:var(--color1, #ecd979)" d="M12.112 14.841h-1.124v-1.142h1.124v1.142zM7.614 14.841H6.49v-1.142h1.124v1.142zM6.489 14.841H5.365v-1.142h1.124v1.142zM5.365 14.841H4.241v-1.142h1.124v1.142zM.867 14.841H-.257v-1.142H.867v1.142zM8.738 13.699H7.614v-1.142h1.124v1.142z"/>
      <path fill="#ecd979" style="fill:var(--color1, #ecd979)" d="M7.614 13.699H6.49v-1.142h1.124v1.142zM6.489 13.699H5.365v-1.142h1.124v1.142zM3.116 13.699H1.992v-1.142h1.124v1.142zM4.24 12.557H3.116v-1.142H4.24v1.142zM3.116 12.557H1.992v-1.142h1.124v1.142zM5.365 11.416H4.241v-1.142h1.124v1.142z"/>
      <path fill="#ecd979" style="fill:var(--color1, #ecd979)" d="M4.24 11.416H3.116v-1.142H4.24v1.142zM3.116 11.416H1.992v-1.142h1.124v1.142zM5.365 10.274H4.241V9.132h1.124v1.142zM4.24 10.274H3.116V9.132H4.24v1.142z"/>
      <path fill="#ecd979" style="fill:var(--color1, #ecd979)" d="M5.365 9.133H4.241V7.991h1.124v1.142zM10.987 7.991H9.863V6.849h1.124v1.142zM10.987 6.849H9.863V5.707h1.124v1.142z"/>
      <path fill="#ecd979" style="fill:var(--color1, #ecd979)" d="M9.863 6.849H8.739V5.707h1.124v1.142z"/>
      <path fill="#ecd979" style="fill:var(--color1, #ecd979)" d="M10.987 5.708H9.863V4.566h1.124v1.142z"/>
      <path fill="#ecd979" style="fill:var(--color1, #ecd979)" d="M9.863 5.708H8.739V4.566h1.124v1.142zM8.738 5.708H7.614V4.566h1.124v1.142zM.867 5.708H-.257V4.566H.867v1.142zM9.863 4.566H8.739V3.424h1.124v1.142zM8.738 4.566H7.614V3.424h1.124v1.142z"/>
      <path fill="#ecd979" style="fill:var(--color1, #ecd979)" d="M7.614 4.566H6.49V3.424h1.124v1.142zM1.991 4.566H.867V3.424h1.124v1.142zM.867 4.566H-.257V3.424H.867v1.142z"/>
      <path fill="#ecd979" style="fill:var(--color1, #ecd979)" d="M8.738 3.425H7.614V2.283h1.124v1.142z"/>
      <path fill="#ecd979" style="fill:var(--color1, #ecd979)" d="M7.614 3.425H6.49V2.283h1.124v1.142zM6.489 3.425H5.365V2.283h1.124v1.142zM12.112 2.283h-1.124V1.141h1.124v1.142zM7.614 2.283H6.49V1.141h1.124v1.142zM6.489 2.283H5.365V1.141h1.124v1.142zM5.365 2.283H4.241V1.141h1.124v1.142z"/>
      <path fill="#ecd979" style="fill:var(--color1, #ecd979)" d="M12.112 1.142h-1.124V0h1.124v1.142zM10.987 1.142H9.863V0h1.124v1.142zM6.489 1.142H5.365V0h1.124v1.142zM5.365 1.142H4.241V0h1.124v1.142zM4.24 1.142H3.116V0H4.24v1.142z"/>
    </symbol>
  </defs>
</svg>
