<svg aria-hidden="true" style="position: absolute; width: 0; height: 0; overflow: hidden;" version="1.1" xmlns="http://www.w3.org/2000/svg" xmlns:xlink="http://www.w3.org/1999/xlink">
<defs>
<symbol id="icon-elements" viewBox="0 0 12 32">
<path fill="#ecd979" style="fill: var(--color1, #ecd979)" d="M12.112 31.964h-1.124v-1.142h1.124v1.142z"></path>
<path fill="#ecd979" style="fill: var(--color1, #ecd979)" d="M10.987 31.964h-1.124v-1.142h1.124v1.142z"></path>
<path fill="#ecd979" style="fill: var(--color1, #ecd979)" d="M6.489 31.964h-1.124v-1.142h1.124v1.142z"></path>
<path fill="#ecd979" style="fill: var(--color1, #ecd979)" d="M5.365 31.964h-1.124v-1.142h1.124v1.142z"></path>
<path fill="#ecd979" style="fill: var(--color1, #ecd979)" d="M4.24 31.964h-1.124v-1.142h1.124v1.142z"></path>
<path fill="#ecd979" style="fill: var(--color1, #ecd979)" d="M12.112 30.823h-1.124v-1.142h1.124v1.142z"></path>
<path fill="#ecd979" style="fill: var(--color1, #ecd979)" d="M7.614 30.823h-1.124v-1.142h1.124v1.142z"></path>
<path fill="#ecd979" style="fill: var(--color1, #ecd979)" d="M6.489 30.823h-1.124v-1.142h1.124v1.142z"></path>
<path fill="#ecd979" style="fill: var(--color1, #ecd979)" d="M5.365 30.823h-1.124v-1.142h1.124v1.142z"></path>
<path fill="#ecd979" style="fill: var(--color1, #ecd979)" d="M8.738 29.681h-1.124v-1.142h1.124v1.142z"></path>
<path fill="#ecd979" style="fill: var(--color1, #ecd979)" d="M7.614 29.681h-1.124v-1.142h1.124v1.142z"></path>
<path fill="#ecd979" style="fill: var(--color1, #ecd979)" d="M6.489 29.681h-1.124v-1.142h1.124v1.142z"></path>
<path fill="#ecd979" style="fill: var(--color1, #ecd979)" d="M9.863 28.54h-1.124v-1.142h1.124v1.142z"></path>
<path fill="#ecd979" style="fill: var(--color1, #ecd979)" d="M8.738 28.54h-1.124v-1.142h1.124v1.142z"></path>
<path fill="#ecd979" style="fill: var(--color1, #ecd979)" d="M7.614 28.54h-1.124v-1.142h1.124v1.142z"></path>
<path fill="#ecd979" style="fill: var(--color1, #ecd979)" d="M1.991 28.54h-1.124v-1.142h1.124v1.142z"></path>
<path fill="#ecd979" style="fill: var(--color1, #ecd979)" d="M0.867 28.54h-1.124v-1.142h1.124v1.142z"></path>
<path fill="#ecd979" style="fill: var(--color1, #ecd979)" d="M10.987 27.398h-1.124v-1.142h1.124v1.142z"></path>
<path fill="#ecd979" style="fill: var(--color1, #ecd979)" d="M9.863 27.398h-1.124v-1.142h1.124v1.142z"></path>
<path fill="#ecd979" style="fill: var(--color1, #ecd979)" d="M8.738 27.398h-1.124v-1.142h1.124v1.142z"></path>
<path fill="#ecd979" style="fill: var(--color1, #ecd979)" d="M0.867 27.398h-1.124v-1.142h1.124v1.142z"></path>
<path fill="#ecd979" style="fill: var(--color1, #ecd979)" d="M10.987 26.256h-1.124v-1.142h1.124v1.142z"></path>
<path fill="#ecd979" style="fill: var(--color1, #ecd979)" d="M9.863 26.256h-1.124v-1.142h1.124v1.142z"></path>
<path fill="#ecd979" style="fill: var(--color1, #ecd979)" d="M10.987 25.115h-1.124v-1.142h1.124v1.142z"></path>
<path fill="#ecd979" style="fill: var(--color1, #ecd979)" d="M5.365 25.115h-1.124v-1.142h1.124v1.142z"></path>
<path fill="#ecd979" style="fill: var(--color1, #ecd979)" d="M5.365 23.973h-1.124v-1.142h1.124v1.142z"></path>
<path fill="#ecd979" style="fill: var(--color1, #ecd979)" d="M4.24 23.973h-1.124v-1.142h1.124v1.142z"></path>
<path fill="#ecd979" style="fill: var(--color1, #ecd979)" d="M5.365 22.832h-1.124v-1.142h1.124v1.142z"></path>
<path fill="#ecd979" style="fill: var(--color1, #ecd979)" d="M4.24 22.832h-1.124v-1.142h1.124v1.142z"></path>
<path fill="#ecd979" style="fill: var(--color1, #ecd979)" d="M3.116 22.832h-1.124v-1.142h1.124v1.142z"></path>
<path fill="#ecd979" style="fill: var(--color1, #ecd979)" d="M4.24 21.69h-1.124v-1.142h1.124v1.142z"></path>
<path fill="#ecd979" style="fill: var(--color1, #ecd979)" d="M3.116 21.69h-1.124v-1.142h1.124v1.142z"></path>
<path fill="#ecd979" style="fill: var(--color1, #ecd979)" d="M8.738 20.548h-1.124v-1.142h1.124v1.142z"></path>
<path fill="#ecd979" style="fill: var(--color1, #ecd979)" d="M7.614 20.548h-1.124v-1.142h1.124v1.142z"></path>
<path fill="#ecd979" style="fill: var(--color1, #ecd979)" d="M6.489 20.548h-1.124v-1.142h1.124v1.142z"></path>
<path fill="#ecd979" style="fill: var(--color1, #ecd979)" d="M3.116 20.548h-1.124v-1.142h1.124v1.142z"></path>
<path fill="#ecd979" style="fill: var(--color1, #ecd979)" d="M12.112 19.407h-1.124v-1.142h1.124v1.142z"></path>
<path fill="#ecd979" style="fill: var(--color1, #ecd979)" d="M7.614 19.407h-1.124v-1.142h1.124v1.142z"></path>
<path fill="#ecd979" style="fill: var(--color1, #ecd979)" d="M6.489 19.407h-1.124v-1.142h1.124v1.142z"></path>
<path fill="#ecd979" style="fill: var(--color1, #ecd979)" d="M5.365 19.407h-1.124v-1.142h1.124v1.142z"></path>
<path fill="#ecd979" style="fill: var(--color1, #ecd979)" d="M0.867 19.407h-1.124v-1.142h1.124v1.142z"></path>
<path fill="#ecd979" style="fill: var(--color1, #ecd979)" d="M12.112 18.265h-1.124v-1.142h1.124v1.142z"></path>
<path fill="#ecd979" style="fill: var(--color1, #ecd979)" d="M10.987 18.265h-1.124v-1.142h1.124v1.142z"></path>
<path fill="#ecd979" style="fill: var(--color1, #ecd979)" d="M6.489 18.265h-1.124v-1.142h1.124v1.142z"></path>
<path fill="#ecd979" style="fill: var(--color1, #ecd979)" d="M5.365 18.265h-1.124v-1.142h1.124v1.142z"></path>
<path fill="#ecd979" style="fill: var(--color1, #ecd979)" d="M4.24 18.265h-1.124v-1.142h1.124v1.142z"></path>
<path fill="#ecd979" style="fill: var(--color1, #ecd979)" d="M1.991 18.265h-1.124v-1.142h1.124v1.142z"></path>
<path fill="#ecd979" style="fill: var(--color1, #ecd979)" d="M0.867 18.265h-1.124v-1.142h1.124v1.142z"></path>
<path fill="#ecd979" style="fill: var(--color1, #ecd979)" d="M12.112 17.124h-1.124v-1.142h1.124v1.142z"></path>
<path fill="#ecd979" style="fill: var(--color1, #ecd979)" d="M10.987 17.124h-1.124v-1.142h1.124v1.142z"></path>
<path fill="#ecd979" style="fill: var(--color1, #ecd979)" d="M9.863 17.124h-1.124v-1.142h1.124v1.142z"></path>
<path fill="#ecd979" style="fill: var(--color1, #ecd979)" d="M12.112 15.982h-1.124v-1.142h1.124v1.142z"></path>
<path fill="#ecd979" style="fill: var(--color1, #ecd979)" d="M10.987 15.982h-1.124v-1.142h1.124v1.142z"></path>
<path fill="#ecd979" style="fill: var(--color1, #ecd979)" d="M6.489 15.982h-1.124v-1.142h1.124v1.142z"></path>
<path fill="#ecd979" style="fill: var(--color1, #ecd979)" d="M5.365 15.982h-1.124v-1.142h1.124v1.142z"></path>
<path fill="#ecd979" style="fill: var(--color1, #ecd979)" d="M4.24 15.982h-1.124v-1.142h1.124v1.142z"></path>
<path fill="#ecd979" style="fill: var(--color1, #ecd979)" d="M1.991 15.982h-1.124v-1.142h1.124v1.142z"></path>
<path fill="#ecd979" style="fill: var(--color1, #ecd979)" d="M0.867 15.982h-1.124v-1.142h1.124v1.142z"></path>
<path fill="#ecd979" style="fill: var(--color1, #ecd979)" d="M12.112 14.841h-1.124v-1.142h1.124v1.142z"></path>
<path fill="#ecd979" style="fill: var(--color1, #ecd979)" d="M7.614 14.841h-1.124v-1.142h1.124v1.142z"></path>
<path fill="#ecd979" style="fill: var(--color1, #ecd979)" d="M6.489 14.841h-1.124v-1.142h1.124v1.142z"></path>
<path fill="#ecd979" style="fill: var(--color1, #ecd979)" d="M5.365 14.841h-1.124v-1.142h1.124v1.142z"></path>
<path fill="#ecd979" style="fill: var(--color1, #ecd979)" d="M0.867 14.841h-1.124v-1.142h1.124v1.142z"></path>
<path fill="#ecd979" style="fill: var(--color1, #ecd979)" d="M8.738 13.699h-1.124v-1.142h1.124v1.142z"></path>
<path fill="#ecd979" style="fill: var(--color1, #ecd979)" d="M7.614 13.699h-1.124v-1.142h1.124v1.142z"></path>
<path fill="#ecd979" style="fill: var(--color1, #ecd979)" d="M6.489 13.699h-1.124v-1.142h1.124v1.142z"></path>
<path fill="#ecd979" style="fill: var(--color1, #ecd979)" d="M3.116 13.699h-1.124v-1.142h1.124v1.142z"></path>
<path fill="#ecd979" style="fill: var(--color1, #ecd979)" d="M4.24 12.557h-1.124v-1.142h1.124v1.142z"></path>
<path fill="#ecd979" style="fill: var(--color1, #ecd979)" d="M3.116 12.557h-1.124v-1.142h1.124v1.142z"></path>
<path fill="#ecd979" style="fill: var(--color1, #ecd979)" d="M5.365 11.416h-1.124v-1.142h1.124v1.142z"></path>
<path fill="#ecd979" style="fill: var(--color1, #ecd979)" d="M4.24 11.416h-1.124v-1.142h1.124v1.142z"></path>
<path fill="#ecd979" style="fill: var(--color1, #ecd979)" d="M3.116 11.416h-1.124v-1.142h1.124v1.142z"></path>
<path fill="#ecd979" style="fill: var(--color1, #ecd979)" d="M5.365 10.274h-1.124v-1.142h1.124v1.142z"></path>
<path fill="#ecd979" style="fill: var(--color1, #ecd979)" d="M4.24 10.274h-1.124v-1.142h1.124v1.142z"></path>
<path fill="#ecd979" style="fill: var(--color1, #ecd979)" d="M5.365 9.133h-1.124v-1.142h1.124v1.142z"></path>
<path fill="#ecd979" style="fill: var(--color1, #ecd979)" d="M10.987 7.991h-1.124v-1.142h1.124v1.142z"></path>
<path fill="#ecd979" style="fill: var(--color1, #ecd979)" d="M10.987 6.849h-1.124v-1.142h1.124v1.142z"></path>
<path fill="#ecd979" style="fill: var(--color1, #ecd979)" d="M9.863 6.849h-1.124v-1.142h1.124v1.142z"></path>
<path fill="#ecd979" style="fill: var(--color1, #ecd979)" d="M10.987 5.708h-1.124v-1.142h1.124v1.142z"></path>
<path fill="#ecd979" style="fill: var(--color1, #ecd979)" d="M9.863 5.708h-1.124v-1.142h1.124v1.142z"></path>
<path fill="#ecd979" style="fill: var(--color1, #ecd979)" d="M8.738 5.708h-1.124v-1.142h1.124v1.142z"></path>
<path fill="#ecd979" style="fill: var(--color1, #ecd979)" d="M0.867 5.708h-1.124v-1.142h1.124v1.142z"></path>
<path fill="#ecd979" style="fill: var(--color1, #ecd979)" d="M9.863 4.566h-1.124v-1.142h1.124v1.142z"></path>
<path fill="#ecd979" style="fill: var(--color1, #ecd979)" d="M8.738 4.566h-1.124v-1.142h1.124v1.142z"></path>
<path fill="#ecd979" style="fill: var(--color1, #ecd979)" d="M7.614 4.566h-1.124v-1.142h1.124v1.142z"></path>
<path fill="#ecd979" style="fill: var(--color1, #ecd979)" d="M1.991 4.566h-1.124v-1.142h1.124v1.142z"></path>
<path fill="#ecd979" style="fill: var(--color1, #ecd979)" d="M0.867 4.566h-1.124v-1.142h1.124v1.142z"></path>
<path fill="#ecd979" style="fill: var(--color1, #ecd979)" d="M8.738 3.425h-1.124v-1.142h1.124v1.142z"></path>
<path fill="#ecd979" style="fill: var(--color1, #ecd979)" d="M7.614 3.425h-1.124v-1.142h1.124v1.142z"></path>
<path fill="#ecd979" style="fill: var(--color1, #ecd979)" d="M6.489 3.425h-1.124v-1.142h1.124v1.142z"></path>
<path fill="#ecd979" style="fill: var(--color1, #ecd979)" d="M12.112 2.283h-1.124v-1.142h1.124v1.142z"></path>
<path fill="#ecd979" style="fill: var(--color1, #ecd979)" d="M7.614 2.283h-1.124v-1.142h1.124v1.142z"></path>
<path fill="#ecd979" style="fill: var(--color1, #ecd979)" d="M6.489 2.283h-1.124v-1.142h1.124v1.142z"></path>
<path fill="#ecd979" style="fill: var(--color1, #ecd979)" d="M5.365 2.283h-1.124v-1.142h1.124v1.142z"></path>
<path fill="#ecd979" style="fill: var(--color1, #ecd979)" d="M12.112 1.142h-1.124v-1.142h1.124v1.142z"></path>
<path fill="#ecd979" style="fill: var(--color1, #ecd979)" d="M10.987 1.142h-1.124v-1.142h1.124v1.142z"></path>
<path fill="#ecd979" style="fill: var(--color1, #ecd979)" d="M6.489 1.142h-1.124v-1.142h1.124v1.142z"></path>
<path fill="#ecd979" style="fill: var(--color1, #ecd979)" d="M5.365 1.142h-1.124v-1.142h1.124v1.142z"></path>
<path fill="#ecd979" style="fill: var(--color1, #ecd979)" d="M4.24 1.142h-1.124v-1.142h1.124v1.142z"></path>
</symbol>
</defs>
</svg>
